<svg width="590" height="517" viewBox="0 0 590 517" fill="none" xmlns="http://www.w3.org/2000/svg">
<path d="M431.5 164.994C431.497 164.718 431.271 164.496 430.995 164.499C430.718 164.502 430.497 164.729 430.5 165.005L431.5 164.994ZM432.512 257.491L431.5 164.994L430.5 165.005L431.512 257.502L432.512 257.491Z" fill="#E2E6F9"/>
<path d="M421.957 152.414C423.244 157.215 428.175 160.05 432.971 158.746C437.768 157.442 440.613 152.493 439.326 147.691C438.04 142.89 433.109 140.055 428.312 141.359C423.516 142.664 420.671 147.613 421.957 152.414Z" fill="#E2E6F9"/>
<path fill-rule="evenodd" clip-rule="evenodd" d="M437.382 144.067C435.194 141.595 431.719 140.433 428.312 141.36C423.516 142.664 420.67 147.613 421.957 152.414C422.322 153.776 422.98 154.98 423.845 155.976L437.382 144.067Z" fill="#D3DAF8"/>
<path d="M416.984 153.21C418.971 160.682 426.633 165.106 434.098 163.092C441.563 161.077 446.004 153.387 444.017 145.914C442.03 138.442 434.367 134.018 426.902 136.032C419.437 138.047 414.997 145.737 416.984 153.21Z" stroke="#E2E6F9"/>
<path d="M436 135.999L490.001 -2.00098" stroke="#E2E6F9"/>
<path d="M419 140.999L370.706 98.9335" stroke="#E2E6F9"/>
<path d="M361.329 96.6739C362.187 99.8747 365.477 101.775 368.678 100.917C371.879 100.06 373.778 96.7707 372.92 93.5699C372.063 90.3692 368.772 88.4693 365.571 89.3264C362.371 90.1836 360.471 93.4732 361.329 96.6739Z" stroke="#E2E6F9" stroke-width="2"/>
<path d="M419.292 281.906C419.516 281.744 419.567 281.432 419.406 281.208C419.245 280.984 418.932 280.933 418.708 281.094L419.292 281.906ZM320.045 353.27L419.292 281.906L418.708 281.094L319.461 352.458L320.045 353.27Z" fill="#E2E6F9"/>
<path d="M318.669 361.222C323.02 360.455 325.922 356.288 325.152 351.916C324.381 347.544 320.229 344.622 315.878 345.389C311.527 346.157 308.625 350.324 309.395 354.696C310.166 359.068 314.318 361.99 318.669 361.222Z" fill="#D3DAF8"/>
<path fill-rule="evenodd" clip-rule="evenodd" d="M321.196 360.319L313.161 346.403C310.397 348.062 308.8 351.318 309.395 354.696C310.166 359.068 314.317 361.99 318.669 361.222C319.582 361.061 320.431 360.75 321.196 360.319Z" fill="#E2E6F9"/>
<path d="M496.234 238.941C496.478 238.812 496.571 238.509 496.442 238.265C496.313 238.021 496.01 237.928 495.766 238.057L496.234 238.941ZM445.234 265.941L496.234 238.941L495.766 238.057L444.766 265.057L445.234 265.941Z" fill="#E2E6F9"/>
<path d="M504.756 244.9C509.54 244.056 512.731 239.475 511.884 234.667C511.037 229.86 506.472 226.647 501.688 227.491C496.904 228.335 493.712 232.917 494.559 237.724C495.407 242.531 499.972 245.744 504.756 244.9Z" fill="#E2E6F9"/>
<path fill-rule="evenodd" clip-rule="evenodd" d="M499.673 228.102C496.046 229.699 493.838 233.629 494.559 237.724C495.406 242.531 499.971 245.744 504.756 244.9C505.654 244.741 506.496 244.451 507.266 244.052L499.673 228.102Z" fill="#D3DAF8"/>
<path d="M541.371 165.473C541.497 165.227 541.4 164.926 541.154 164.8C540.908 164.674 540.607 164.771 540.481 165.017L541.371 165.473ZM507.945 230.728L541.371 165.473L540.481 165.017L507.055 230.272L507.945 230.728Z" fill="#E2E6F9"/>
<path d="M544.669 169.989C549.318 169.169 552.411 164.72 551.59 160.06C550.769 155.4 546.341 152.278 541.692 153.098C537.043 153.918 533.949 158.367 534.77 163.027C535.592 167.687 540.02 170.809 544.669 169.989Z" fill="white" stroke="#E2E6F9" stroke-width="2"/>
<path d="M597.074 283.049C597.324 283.166 597.621 283.058 597.738 282.808C597.855 282.558 597.747 282.26 597.497 282.143L597.074 283.049ZM597.497 282.143L508.328 240.512L507.905 241.418L597.074 283.049L597.497 282.143Z" fill="#E2E6F9"/>
<path d="M598.632 290.245C602.732 289.521 605.468 285.594 604.742 281.474C604.016 277.353 600.103 274.599 596.002 275.323C591.901 276.046 589.166 279.973 589.892 284.094C590.618 288.214 594.531 290.968 598.632 290.245Z" fill="#E2E6F9"/>
<path d="M501.468 426.784C501.582 427.035 501.879 427.147 502.13 427.033C502.381 426.919 502.493 426.622 502.378 426.371L501.468 426.784ZM502.378 426.371L438.468 285.79L437.557 286.204L501.468 426.784L502.378 426.371Z" fill="#E2E6F9"/>
<path d="M506.951 440.439C511.052 439.715 513.787 435.789 513.061 431.668C512.335 427.548 508.422 424.794 504.321 425.517C500.221 426.241 497.485 430.167 498.211 434.288C498.937 438.408 502.85 441.162 506.951 440.439Z" fill="#E2E6F9"/>
<path d="M420.624 267.89C420.87 268.016 421.171 267.918 421.297 267.672C421.422 267.426 421.324 267.125 421.078 267L420.624 267.89ZM266.954 189.527L420.624 267.89L421.078 267L267.409 188.637L266.954 189.527Z" fill="#E2E6F9"/>
<path d="M262.264 195.188C268.505 194.922 273.347 189.623 273.081 183.353C272.814 177.082 267.539 172.215 261.299 172.482C255.059 172.748 250.216 178.047 250.483 184.317C250.749 190.588 256.024 195.455 262.264 195.188Z" fill="#E2E6F9"/>
<path d="M279.03 201.207C288.793 191.444 288.793 175.614 279.031 165.85C269.268 156.086 253.44 156.086 243.677 165.849C233.914 175.613 233.914 191.443 243.676 201.206C253.439 210.97 269.267 210.971 279.03 201.207Z" fill="white" stroke="#E2E6F9"/>
<path d="M271.818 193.822C277.676 187.964 277.676 178.466 271.819 172.608C265.961 166.749 256.464 166.749 250.606 172.607C244.749 178.465 244.748 187.963 250.606 193.821C256.463 199.68 265.96 199.68 271.818 193.822Z" fill="#E2E6F9"/>
<path fill-rule="evenodd" clip-rule="evenodd" d="M255.028 196.885L268.135 169.902C262.483 166.961 255.351 167.862 250.607 172.607C244.749 178.465 244.749 187.963 250.606 193.821C251.924 195.139 253.425 196.16 255.028 196.885Z" fill="#D3DAF8"/>
<path opacity="0.4" d="M89.4436 236.557C101.483 224.517 101.474 204.985 89.4223 192.932C77.3709 180.879 57.8413 180.868 45.8016 192.908C33.762 204.948 33.7715 224.48 45.8229 236.533C57.8743 248.587 77.404 248.597 89.4436 236.557Z" fill="#E2E7FF"/>
<path opacity="0.5" d="M83.7858 230.899C92.7041 221.98 92.697 207.512 83.7701 198.584C74.8431 189.655 60.3767 189.648 51.4585 198.566C42.5402 207.485 42.5473 221.953 51.4742 230.881C60.4012 239.809 74.8676 239.817 83.7858 230.899Z" fill="#DEE4FF"/>
<path d="M75.7045 222.815C80.1636 218.356 80.16 211.122 75.6966 206.658C71.2331 202.194 63.9999 202.19 59.5408 206.649C55.0816 211.109 55.0852 218.343 59.5486 222.807C64.0121 227.271 71.2453 227.275 75.7045 222.815Z" fill="#DEE4FF"/>
<path fill-rule="evenodd" clip-rule="evenodd" d="M75.7048 222.816L59.5409 206.649C55.0817 211.109 55.0852 218.343 59.5487 222.807C64.0123 227.271 71.2456 227.275 75.7048 222.816Z" fill="#D3DAF8"/>
<path d="M298.364 163.95C299.535 162.778 299.535 160.879 298.364 159.707C297.192 158.535 295.293 158.535 294.121 159.707C292.95 160.878 292.95 162.778 294.121 163.95C295.293 165.121 297.192 165.121 298.364 163.95Z" fill="#E2E6F9"/>
<path d="M277.485 229.657C279.047 228.095 279.047 225.562 277.485 224C275.923 222.438 273.39 222.438 271.828 224C270.266 225.562 270.266 228.095 271.828 229.657C273.39 231.219 275.923 231.219 277.485 229.657Z" fill="#E2E6F9"/>
<path d="M236.364 215.364C237.535 214.192 237.535 212.293 236.364 211.121C235.192 209.949 233.293 209.949 232.121 211.121C230.95 212.292 230.95 214.192 232.121 215.364C233.293 216.535 235.192 216.535 236.364 215.364Z" fill="#E2E6F9"/>
<path d="M242.485 151.058C244.047 149.496 244.047 146.963 242.485 145.401C240.923 143.839 238.39 143.839 236.828 145.401C235.266 146.963 235.266 149.496 236.828 151.058C238.39 152.62 240.923 152.62 242.485 151.058Z" fill="#E2E6F9"/>
<path d="M98 209.5L237 189" stroke="#E2E6F9"/>
<path d="M449.825 271.198C448.942 261.148 440.117 253.707 430.113 254.579C420.11 255.451 412.716 264.305 413.598 274.355C414.481 284.405 423.306 291.846 433.31 290.974C443.313 290.102 450.707 281.248 449.825 271.198Z" fill="white" stroke="#E2E6F9"/>
<path d="M447.857 271.298C447.064 262.268 439.134 255.583 430.146 256.366C421.158 257.149 414.514 265.105 415.307 274.135C416.1 283.165 424.03 289.85 433.018 289.067C442.006 288.284 448.65 280.328 447.857 271.298Z" fill="#E2E6F9"/>
<path fill-rule="evenodd" clip-rule="evenodd" d="M418.082 281.946C421.307 286.691 426.918 289.598 433.017 289.066C442.005 288.283 448.649 280.328 447.855 271.298C447.65 268.959 446.966 266.778 445.909 264.843L418.082 281.946Z" fill="#D3DAF8"/>
</svg>
