<svg width="80" height="80" viewBox="0 0 80 80" fill="none" xmlns="http://www.w3.org/2000/svg">
<circle cx="40" cy="40" r="40" fill="#FFA8AC"/>
<path d="M31.659 22.6877C32.081 22.2474 32.6533 22 33.25 22H46.75C47.3467 22 47.919 22.2474 48.341 22.6877C48.7629 23.128 49 23.7251 49 24.3478C49 24.9705 48.7629 25.5677 48.341 26.008C47.919 26.4483 47.3467 26.6957 46.75 26.6957H33.25C32.6533 26.6957 32.081 26.4483 31.659 26.008C31.2371 25.5677 31 24.9705 31 24.3478C31 23.7251 31.2371 23.128 31.659 22.6877Z" fill="#FB4B53"/>
<path d="M26.5 32.9562C26.5 32.3335 26.7371 31.7364 27.159 31.2961C27.581 30.8558 28.1533 30.6084 28.75 30.6084H51.25C51.8467 30.6084 52.419 30.8558 52.841 31.2961C53.2629 31.7364 53.5 32.3335 53.5 32.9562C53.5 33.5789 53.2629 34.1761 52.841 34.6164C52.419 35.0567 51.8467 35.304 51.25 35.304H28.75C28.1533 35.304 27.581 35.0567 27.159 34.6164C26.7371 34.1761 26.5 33.5789 26.5 32.9562Z" fill="#E43D44"/>
<path d="M23.318 40.5931C22.4741 41.4737 22 42.6681 22 43.9134V53.3047C22 54.5501 22.4741 55.7444 23.318 56.6251C24.1619 57.5057 25.3065 58.0004 26.5 58.0004H53.5C54.6935 58.0004 55.8381 57.5057 56.682 56.6251C57.5259 55.7444 58 54.5501 58 53.3047V43.9134C58 42.6681 57.5259 41.4737 56.682 40.5931C55.8381 39.7125 54.6935 39.2178 53.5 39.2178H26.5C25.3065 39.2178 24.1619 39.7125 23.318 40.5931Z" fill="#D24349"/>
</svg>
