<svg width="80" height="80" viewBox="0 0 80 80" fill="none" xmlns="http://www.w3.org/2000/svg">
<circle cx="40" cy="40" r="40" fill="#BDEBFF"/>
<path d="M39.2512 38.0597L22.8727 31.3705C21.7091 30.8951 21.7091 29.3113 22.8727 28.8359L39.2519 22.1467C39.4868 22.05 39.7421 22 40.0004 22C40.2586 22 40.5139 22.05 40.7488 22.1467L57.1266 28.8365C58.2902 29.3119 58.2902 30.8951 57.1266 31.3705L40.7481 38.0597C40.27 38.2553 39.7293 38.2553 39.2512 38.0597Z" fill="#4288C9"/>
<path d="M57.1273 38.7443L53.8685 37.4145C53.3438 37.2004 52.7419 37.2004 52.2172 37.4145L41.6776 41.7158C41.1461 41.9329 40.5815 42.043 40 42.043C39.4185 42.043 38.8546 41.9329 38.3224 41.7158L27.7835 37.4145C27.2588 37.2004 26.6569 37.2004 26.1322 37.4145L22.8727 38.7443C21.7091 39.2191 21.7091 40.8017 22.8727 41.2764L39.2512 47.9606C39.7293 48.1555 40.27 48.1555 40.7481 47.9606L57.1273 41.2764C58.2909 40.8017 58.2909 39.2191 57.1273 38.7443Z" fill="#5AA0E1"/>
<path d="M52.2326 47.314C52.7574 47.0998 53.3592 47.0998 53.884 47.3139L57.1273 48.6374C58.2909 49.1122 58.2909 50.6948 57.1273 51.1695L40.7481 57.8536C40.27 58.0486 39.7293 58.0486 39.2512 57.8536L22.8727 51.1695C21.7091 50.6948 21.7091 49.1122 22.8727 48.6374L26.1167 47.3139C26.6415 47.0998 27.2433 47.0998 27.768 47.314L38.3224 51.6215C38.8546 51.8386 39.4185 51.9488 40 51.9488C40.5815 51.9488 41.1461 51.8386 41.6776 51.6215L52.2326 47.314Z" fill="#5E9CD6"/>
</svg>
