<svg width="80" height="80" viewBox="0 0 80 80" fill="none" xmlns="http://www.w3.org/2000/svg">
<circle cx="40" cy="40" r="40" fill="#C0BBFF"/>
<path d="M25.8586 35.7083C25.4528 35.5325 25.0003 35.4495 24.5467 35.4672C24.0931 35.4849 23.6515 35.6027 23.2652 35.8094C22.8789 36.0161 22.5599 36.3049 22.3375 36.6483C22.1161 36.9918 22 37.3785 22 37.7718V51.0766C22 51.5051 22.1389 51.9252 22.3993 52.2896C22.6597 52.6541 23.0319 52.9486 23.4746 53.1402L34.1411 57.7566C34.548 57.9325 34.9994 58.0154 35.454 57.9977C35.9076 57.9801 36.3481 57.8623 36.7355 57.6555C37.1218 57.4488 37.4408 57.16 37.6622 56.8166C37.7468 56.6845 37.8163 56.546 37.8694 56.4032C37.9551 56.1747 37.9996 55.9351 38.0007 55.6931V42.3884C37.9996 41.9598 37.8618 41.5398 37.6014 41.1753C37.341 40.8108 36.9688 40.5163 36.5261 40.3248L25.8586 35.7083Z" fill="#6266CC"/>
<path d="M42.1095 56.3436C42.1648 56.5075 42.2419 56.6662 42.3384 56.8166C42.5598 57.16 42.8788 57.4488 43.2662 57.6555C43.4604 57.7594 43.6688 57.8409 43.8858 57.8984C43.9899 57.9261 44.0963 57.9482 44.2037 57.9647C44.3166 57.9822 44.4316 57.9932 44.5477 57.9977C45.0012 58.0154 45.4526 57.9325 45.8596 57.7566L56.526 53.1402C56.9698 52.9486 57.342 52.6541 57.6024 52.2896C57.8628 51.9252 58.0006 51.5051 58.0006 51.0766V37.7718C58.0006 37.3785 57.8845 36.9918 57.6632 36.6483C57.4418 36.3049 57.1228 36.0161 56.7365 35.8094C56.3491 35.6027 55.9086 35.4849 55.4539 35.4672C55.0003 35.4495 54.5489 35.5325 54.142 35.7083L43.4756 40.3248C43.0329 40.5163 42.6596 40.8108 42.3992 41.1753C42.1388 41.5398 42.001 41.9598 42.001 42.3884V55.6931C42.001 55.9142 42.0379 56.1332 42.1095 56.3436Z" fill="#5155BF"/>
<path d="M54.5608 31.0178C54.3003 31.3823 53.9282 31.6769 53.4865 31.8688L40.7823 37.3671C40.4123 37.5272 40.0043 37.6105 39.5898 37.6105C39.1764 37.6105 38.7684 37.5272 38.3984 37.3671L25.6941 31.8688C25.2514 31.6769 24.8792 31.3823 24.6199 31.0178C24.3595 30.6534 24.2217 30.2336 24.2217 29.8052C24.2217 29.377 24.3595 28.9571 24.6199 28.5927C24.8792 28.2282 25.2514 27.9336 25.6941 27.7417L38.3984 22.2434C38.7684 22.0834 39.1764 22 39.5898 22C40.0043 22 40.4123 22.0834 40.7823 22.2434L53.4865 27.7417C53.9282 27.9336 54.3003 28.2282 54.5608 28.5927C54.8201 28.9571 54.9579 29.377 54.9579 29.8052C54.9579 30.2336 54.8201 30.6534 54.5608 31.0178Z" fill="#4247CB"/>
</svg>
