<svg width="80" height="80" viewBox="0 0 80 80" fill="none" xmlns="http://www.w3.org/2000/svg">
<circle cx="40" cy="40" r="40" fill="#FFD9A0"/>
<path d="M24.3478 53.5C23.7251 53.5 23.1279 53.2629 22.6876 52.841C22.2474 52.419 22 51.8467 22 51.25V28.75C22 28.1533 22.2474 27.581 22.6876 27.159C23.1279 26.7371 23.7251 26.5 24.3478 26.5C24.9704 26.5 25.5676 26.7371 26.0079 27.159C26.4482 27.581 26.6955 28.1533 26.6955 28.75V51.25C26.6955 51.8467 26.4482 52.419 26.0079 52.841C25.5676 53.2629 24.9704 53.5 24.3478 53.5Z" fill="#FF9635"/>
<path d="M55.6525 53.875C55.0298 53.875 54.4326 53.6379 53.9923 53.216C53.552 52.794 53.3047 52.2217 53.3047 51.625V29.125C53.3047 28.5283 53.552 27.956 53.9923 27.534C54.4326 27.1121 55.0298 26.875 55.6525 26.875C56.2751 26.875 56.8723 27.1121 57.3126 27.534C57.7529 27.956 58.0002 28.5283 58.0002 29.125V51.625C58.0002 52.2217 57.7529 52.794 57.3126 53.216C56.8723 53.6379 56.2751 53.875 55.6525 53.875Z" fill="#FF8A35"/>
<path d="M31.9837 56.682C32.8643 57.5259 34.0586 58 35.3039 58H44.695C45.9403 58 47.1347 57.5259 48.0152 56.682C48.8958 55.8381 49.3905 54.6935 49.3905 53.5V26.5C49.3905 25.3065 48.8958 24.1619 48.0152 23.318C47.1347 22.4741 45.9403 22 44.695 22H35.3039C34.0586 22 32.8643 22.4741 31.9837 23.318C31.1031 24.1619 30.6084 25.3065 30.6084 26.5L30.6084 53.5C30.6084 54.6935 31.1031 55.8381 31.9837 56.682Z" fill="#FF8717"/>
</svg>
