<svg width="80" height="80" viewBox="0 0 80 80" fill="none" xmlns="http://www.w3.org/2000/svg">
<circle cx="40" cy="40" r="40" fill="#CCF4E3"/>
<path d="M22 44.5V51.25C22 54.9782 30.0589 58 40 58C49.9411 58 58 54.9782 58 51.25V44.5C58 48.2282 49.9411 51.25 40 51.25C30.0589 51.25 22 48.2282 22 44.5Z" fill="#58DCA2"/>
<path d="M22 33.25V40C22 43.7282 30.0589 46.75 40 46.75C49.9411 46.75 58 43.7282 58 40V33.25C58 36.9782 49.9411 40 40 40C30.0589 40 22 36.9782 22 33.25Z" fill="#1FCF82"/>
<path d="M58 28.75C58 32.4783 49.9411 35.5 40 35.5C30.0589 35.5 22 32.4783 22 28.75C22 25.0218 30.0589 22 40 22C49.9411 22 58 25.0218 58 28.75Z" fill="#00CA72"/>
</svg>
